<?xml version="1.0" encoding="UTF-8"?>
<svg xmlns="http://www.w3.org/2000/svg" id="Layer_1" data-name="Layer 1" viewBox="0 0 24 24">
  <path d="m18,12c-3.314,0-6,2.686-6,6s2.686,6,6,6,6-2.686,6-6-2.686-6-6-6Zm3.683,5.712l-2.703,2.614c-.452.446-1.052.671-1.653.671s-1.203-.225-1.663-.674l-1.354-1.332c-.395-.387-.4-1.02-.014-1.414.386-.395,1.019-.401,1.414-.014l1.353,1.331c.144.142.38.139.522-.002l2.713-2.624c.397-.381,1.031-.37,1.414.029.382.398.369,1.031-.029,1.414Zm-8.968,6.288h-6.715c-2.76-.003-4.997-2.24-5-5v-8c0-.552.448-1,1-1h15.995c-4.409.003-7.995,3.59-7.995,8,0,2.387,1.051,4.533,2.715,6ZM3,8c-1.656,0-3-1.343-3-3C0,2.238,2.238,0,5,0c0,0,14.145.002,14.218.005,2.762.12,4.903,2.456,4.782,5.218-.102,1.575-1.42,2.796-3,2.777H3Z"/>
</svg>
