<?xml version="1.0" encoding="UTF-8"?>
<svg id="Graphic_Elements" xmlns="http://www.w3.org/2000/svg" viewBox="0 0 353.11 357.49">
    <path
        d="m240,78.22c-2.36-13.49-4.16-26.99-5.81-40.53-.63-4.46-2.98-8.65-6.56-11.25-2.96-2.18-6.61-3.22-10.18-2.88-4.06.39-12.21,1.1-16.28,1.45-20.34,1.74-40.7,3.08-61.07,4.18-.34.03-1.13.05-1.45.07-3.47.43-6.46,3.16-6.99,6.62-.14.67-.07,1.36-.06,2.04.6,17.77,1.14,35.71,1.3,53.47-.04,3.97-.64,7.95-1.82,11.74-4.71,15.37-19.18,27-35.25,28.03-1.24.08-3.62.18-4.44.15-16.9.02-36.64-.21-53.55-.55-4.29-.02-7.56,3.68-7.41,7.94-.61,16.08-1.41,32.42-2.39,48.46-.67,10.72-1.44,21.7-2.27,32.43-.09,3.37,1.19,6.75,3.46,9.36,2.09,2.44,5.17,4.3,8.36,4.98.38.07.94.2,1.31.27,17.01,1.79,33.92,3.77,50.85,6.57-17.24,2.96-34.45,5.29-51.8,7.09,0,0-1.37.05-1.37.05l-.69.02c-.23,0-.46-.02-.69-.03l-1.38-.09c-14.93-1.16-27.05-13.64-28.37-28.54-.18-1.39-.45-5.2-.6-6.7-1.68-19.63-2.99-39.3-4.06-58.97-.23-3.96-.54-10.87-.74-14.74-.02-.52-.07-1.33-.05-1.83-.41-19.96,15.37-37.22,35.23-38.96,1.72-.14,3.81-.24,5.44-.28,16.11-.47,34.38-.82,50.56-.96,1.76-.02,2.27.02,3.66-.5,1.8-.77,3.22-2.48,3.59-4.39,0-.18.11-.35.09-.54,0-.09,0-.19.01-.28l.02-.14v-.07s.02-.04.02-.04v-.13c.08-17.49.37-35.17.83-52.67.05-1.25.13-2.3.21-3.47C101.48,15.38,118.06-.08,137.44.01c0,0,.86-.01.86-.01h.21s.13,0,.13,0h.26s1.05.06,1.05.06c23.16,1.02,46.41,2.4,69.54,4.27l4.22.34,2.11.17c8.7.48,16.95,4.2,22.58,10.82,6.01,7,8.12,15.66,6.73,24.62-1.46,12.66-3.04,25.3-5.13,37.94h0Z"
        fill="#528ac8" stroke-width="0" />
    <path
        d="m189.42,160.01c-20,10.3-41.48,24.52-52.3,44.79-4.42,8.24-6.95,17.33-8.2,26.6-.85,6.44-1.31,12.99-1.52,19.48-.48,13.07.63,26.91,1.56,40.04.57,7.39,1.05,16.67,1.73,24.1.24,2.17.53,4.58,1.47,6.17,1.43,2.3,4.42,3.83,7.09,3.6,20.5-.68,41.44-1.13,61.91-1.47,3.53-.02,12.17-.19,15.56-.2,0,0,.62,0,.62,0,.17-.04.34-.06.52-.05.23,0,.43-.11.66-.1,2.69-.62,4.64-3.07,4.69-5.83,0-1.1,0-3.38,0-4.51,0-14.3.02-35.53.32-49.88.24-6.32,2.05-12.57,5.19-18.05,6.84-12.08,20.29-19.94,34.19-19.8,18.07.35,36.19.93,54.26,1.6,1.66.09,3.3.04,4.9-.6,2.8-1.14,5.03-3.51,5.93-6.46.04-.19.09-.38.15-.58l.09-.29c.07-.35.09-.71.18-1.06,0-.06.03-.07.03-.2,1.35-26.67,3.08-53.48,5.32-80.09,0-.11.02-.23.02-.29l.03-.47.07-.94.02-.24v-.23s-.03-.47-.03-.47c-.01-.32-.02-.63-.02-.96l-.13-.95c-.05-.31-.06-.65-.14-.96l-.22-.94-.11-.48c-.25-.64-.52-1.68-.86-2.31,0,0-.41-.92-.41-.92l-.5-.87c-2.44-4.25-6.76-7.49-11.6-8.72-.82-.24-1.92-.42-2.77-.56-8-.87-16.01-1.77-24-2.87,7.98-1.18,15.98-2.14,23.97-3.09l.73-.04,1.48-.08c10.31-.24,19.85,5.81,24.6,14.96,0,0,.34.74.34.74l.68,1.49c.42,1.01.74,2.06,1.09,3.1.21.97.57,2.27.71,3.23,2.65,25.56,4.38,51.38,6.05,77.03.03.42.33,5.54.35,5.83.91,20.2-15.52,37.19-35.79,37.56-17.91.85-35.88,1.55-53.8,2.11h-.15s-.05.02-.05.02l-.1.02c-.41.05-.79.13-1.18.23-.25.06-.48.2-.74.24-2.31.97-4.09,3.21-4.25,5.72.1,11.53.56,32.59.63,44.19,0,3,.11,7.86.03,10.88-.32,21.59-18.54,39.42-40.14,39.34,0,0-.67,0-.67,0h-5.19c-24.12-.1-48.8-.39-72.92-.98-17.57-.36-33.75-13.78-36.47-31.23-.63-3.7-.76-6.58-.82-9.99.17-14.74.32-30.07,1.13-44.87.64-10.86,1.94-21.8,4.21-32.45,2.98-14.8,8.19-29.51,17.57-41.54,15.55-20.16,40.62-31.46,65.04-36.42h0Z"
        fill="#528ac8" stroke-width="0" />
    <path
        d="m99.8,203.63c-11.78-33.48-2.17-66.2,31.42-81.39,5.48-2.42,11.24-4.44,17.06-5.84,15.69-3.95,32.06-4.12,46.96-7.27,4.18-.93,8.31-2.14,12.37-3.51,16.73-5.96,31.89-15.57,46.41-27.43,7.31-6.17,18.29-5.16,24.34,2.26,2.43,2.95,3.6,6.37,3.88,9.96.24,2.12.43,4.41.59,6.52.86,12.09.8,24.17-.27,36.26-2.58,27.58-10.24,57.2-31.22,76.92-2.57,2.36-5.39,4.59-8.31,6.51-28.17,16.82-64.75,22.17-95.88,11.69,17.87-1.37,35.07-5.54,51.13-12.73,10.58-4.82,20.27-10.56,29.12-17.77.58-.43.88-.82,1.35-1.26,8.05-8.07,12.45-18.08,15.56-29.39,5.17-19.63,5.7-40.97,4.6-61.29-.26-4.05-.55-8.09-1.04-12.1l28.09,11.1c-9.76,8.03-20.56,15.5-32.01,21.41-1.66.85-3.61,1.78-5.29,2.62-1.05.49-4.3,1.91-5.43,2.4-4.79,1.96-10.07,3.88-15.06,5.27-1.05.33-2.8.75-3.88,1.03-2.21.6-5.57,1.27-7.86,1.71-15.48,2.97-32.59,1.69-47.37,2.21-7.17.26-14.35,1.1-21.28,2.99-28.34,7.48-36.24,32.35-37.99,59.14h0Z"
        fill="#7cc7b9" stroke-width="0" />
</svg>