<?xml version="1.0" encoding="utf-8"?>
<!-- Generator: Adobe Illustrator 27.8.1, SVG Export Plug-In . SVG Version: 6.00 Build 0)  -->
<svg version="1.1" id="Layer_1" xmlns="http://www.w3.org/2000/svg" xmlns:xlink="http://www.w3.org/1999/xlink" x="0px" y="0px"
	 viewBox="0 0 512 512" style="enable-background:new 0 0 512 512;" xml:space="preserve">
<path d="M39,38.8l22.4-19.4c25.8-25.8,67.6-25.8,93.4,0c0.6,0.6,40.1,52.1,40.1,52.1c24.3,25.6,24.3,65.9,0,91.3l-24.7,31.1
	c31.1,70.6,79.6,119.3,147.8,148.3l31.1-25c25.4-24.5,65.9-24.5,91.3,0c0,0,51.4,39.5,52.1,40.1c25.8,25.8,25.8,67.6,1.1,92.4
	l-21.3,24.5c-24.5,24.5-57.6,38-93.4,38C215.9,512.2,0,296.1,0,133.3C0,97.7,13.4,64.4,39,39L39,38.8z M378.8,469.3
	c24.3,0,46.7-9,62.1-24.5l21.3-24.5c8.7-8.7,9.2-23,0.9-32.2c0,0-51-39.3-51.6-39.9c-8.7-8.7-24.1-8.7-33.1,0
	c-0.6,0.6-43.5,35-43.5,35c-6,4.7-13.9,6-20.9,3.2c-88.3-33.7-151.7-96.9-188.2-187.9c-2.8-7-1.7-15.1,3.2-21.3
	c0,0,34.3-43.1,34.8-43.5c9.2-9.2,9.2-23.9,0-33.1c-0.6-0.6-39.9-51.6-39.9-51.6c-9.2-8.3-23.5-8.1-33.3,1.7L68.2,70
	c-16.4,16.4-25.6,38.8-25.6,63.1C42.6,281.6,251.1,469.3,378.8,469.3L378.8,469.3z"/>
</svg>
