<?xml version="1.0" encoding="utf-8"?>
<!-- Generator: Adobe Illustrator 27.8.1, SVG Export Plug-In . SVG Version: 6.00 Build 0)  -->
<svg version="1.1" id="Layer_1" xmlns="http://www.w3.org/2000/svg" xmlns:xlink="http://www.w3.org/1999/xlink" x="0px" y="0px"
	 viewBox="0 0 24 24" style="enable-background:new 0 0 24 24;" xml:space="preserve">
<path d="M19.5,11H23c0.6,0,1-0.4,1-1s-0.4-1-1-1h-3.5c-0.6,0-1,0.4-1,1S18.9,11,19.5,11z M13.8,2c0-0.6,0.4-1,1-1H23
	c0.6,0,1,0.4,1,1s-0.4,1-1,1h-8.2C14.3,3,13.8,2.6,13.8,2z M15.8,6c0-0.6,0.4-1,1-1H23c0.6,0,1,0.4,1,1s-0.4,1-1,1h-6.2
	C16.3,7,15.8,6.6,15.8,6z M8.9,20C9,20.2,9,20.3,9,20.5C9,21.9,7.9,23,6.5,23S4,21.9,4,20.5c0-0.2,0-0.3,0.1-0.5H8.9L8.9,20z M9,18
	V6c0-2,1.2-3.7,2.9-4.5c0,0.2,0,0.4,0,0.5c0,1.4,0.9,2.5,2.2,2.9c-0.1,0.3-0.2,0.7-0.2,1.1c0,1.6,1.3,2.9,2.8,3
	c-0.1,0.3-0.2,0.7-0.2,1c0,1.7,1.3,3,3,3H23c0.4,0,0.7-0.1,1-0.2V14c0,2.2-1.8,4-4,4H9L9,18z M19.9,20c0,0.2,0.1,0.3,0.1,0.5
	c0,1.4-1.1,2.5-2.5,2.5S15,21.9,15,20.5c0-0.2,0-0.3,0.1-0.5H19.9L19.9,20z M7,18H4c-2.2,0-4-1.8-4-4v-1h7V18z M5,5h2v6H0v-1
	C0,7.2,2.2,5,5,5z"/>
</svg>
